<?xml version="1.0" encoding="UTF-8" standalone="no"?>
<svg
   xmlns:dc="http://purl.org/dc/elements/1.1/"
   xmlns:cc="http://creativecommons.org/ns#"
   xmlns:rdf="http://www.w3.org/1999/02/22-rdf-syntax-ns#"
   xmlns:svg="http://www.w3.org/2000/svg"
   xmlns="http://www.w3.org/2000/svg"
   xmlns:sodipodi="http://sodipodi.sourceforge.net/DTD/sodipodi-0.dtd"
   xmlns:inkscape="http://www.inkscape.org/namespaces/inkscape"
   version="1.1"
   id="Your_Icon"
   x="0px"
   y="0px"
   viewBox="5.0 -10.0 100.0 135.0"
   enable-background="new 0 0 100 100"
   xml:space="preserve"
   height="100px"
   width="100px"
   inkscape:version="0.48.4 r9939"
   sodipodi:docname="noun_140091_cc.svg"><metadata
     id="metadata19"><rdf:RDF><cc:Work
         rdf:about=""><dc:format>image/svg+xml</dc:format><dc:type
           rdf:resource="http://purl.org/dc/dcmitype/StillImage" /></cc:Work></rdf:RDF></metadata><defs
     id="defs17" /><sodipodi:namedview
     pagecolor="#ffffff"
     bordercolor="#666666"
     borderopacity="1"
     objecttolerance="10"
     gridtolerance="10"
     guidetolerance="10"
     inkscape:pageopacity="0"
     inkscape:pageshadow="2"
     inkscape:window-width="640"
     inkscape:window-height="480"
     id="namedview15"
     showgrid="false"
     inkscape:zoom="2.36"
     inkscape:cx="50"
     inkscape:cy="50"
     inkscape:window-x="75"
     inkscape:window-y="34"
     inkscape:window-maximized="0"
     inkscape:current-layer="Your_Icon" /><g
     id="g3"><path
       d="M56.798,70.722c2.37-1.763,3.916-4.577,3.916-7.751c0-5.33-4.336-9.667-9.667-9.667s-9.667,4.336-9.667,9.667   c0,3.176,1.546,5.99,3.918,7.753c-2.802,1.093-5.198,2.955-6.915,5.321c-5.742-2.957-10.348-7.818-12.901-13.786   c-0.699-1.634-1.244-3.348-1.621-5.124l0,0l4.742,3.774c0.648,0.516,1.592,0.409,2.108-0.24c0.516-0.648,0.409-1.592-0.24-2.108   l-7.884-6.275c-0.648-0.517-1.592-0.409-2.108,0.24l-6.275,7.884c-0.516,0.648-0.409,1.592,0.24,2.108   c0.305,0.243,0.675,0.347,1.035,0.323c0.406-0.027,0.799-0.219,1.073-0.562l4.052-5.091c0.238,1.244,0.548,2.462,0.93,3.649   c2.514,7.813,8.059,14.264,15.234,18.007c-0.785,1.802-1.22,3.781-1.22,5.858c0,0.829,0.671,1.5,1.5,1.5h28c0.007,0,0.013,0,0.02,0   c0.829,0,1.5-0.671,1.5-1.5c0-0.088-0.008-0.175-0.022-0.259C66.436,78.223,62.425,72.917,56.798,70.722z M44.381,62.971   c0-3.676,2.991-6.667,6.667-6.667s6.667,2.991,6.667,6.667c0,3.676-2.991,6.667-6.667,6.667S44.381,66.647,44.381,62.971z    M38.643,83.201c0.768-5.947,6.038-10.564,12.404-10.564s11.636,4.617,12.404,10.564H38.643z"
       id="path5" /><path
       d="M90.431,48.545c-0.109-6.22-4.119-11.525-9.747-13.72c2.37-1.763,3.916-4.577,3.916-7.751c0-5.331-4.336-9.667-9.667-9.667   s-9.667,4.336-9.667,9.667c0,3.176,1.546,5.99,3.918,7.753c-5.706,2.225-9.751,7.646-9.751,13.978c0,0.829,0.671,1.5,1.5,1.5H78.81   c0.016,0.351,0.03,0.703,0.03,1.058c0,5.75-1.755,11.098-4.758,15.536c-1.13,1.67-2.443,3.206-3.899,4.592l0.992-5.371   c0.151-0.815-0.388-1.597-1.202-1.748c-0.815-0.151-1.597,0.388-1.748,1.202l-1.831,9.908c-0.151,0.815,0.388,1.597,1.202,1.748   l9.908,1.831c0.815,0.151,1.597-0.388,1.748-1.202c0.071-0.383-0.011-0.759-0.202-1.065c-0.215-0.345-0.569-0.603-1.001-0.682   l-6.809-1.258c0.932-0.802,1.82-1.655,2.651-2.561c5.06-5.519,8.155-12.869,8.155-20.929c0-0.355-0.012-0.706-0.026-1.058h6.913   c0.007-0.001,0.013,0,0.02,0c0.829,0,1.5-0.671,1.5-1.5C90.454,48.716,90.446,48.629,90.431,48.545z M68.267,27.074   c0-3.676,2.991-6.667,6.667-6.667s6.667,2.991,6.667,6.667c0,3.676-2.991,6.667-6.667,6.667S68.267,30.749,68.267,27.074z    M62.53,47.304c0.768-5.947,6.038-10.564,12.404-10.564s11.636,4.617,12.404,10.564H62.53z"
       id="path7" /><path
       d="M39.066,50.304c0.829,0,1.5-0.671,1.5-1.5c0-0.088-0.008-0.175-0.022-0.259c-0.109-6.22-4.119-11.525-9.747-13.72   c1.863-1.386,3.218-3.419,3.71-5.77c4.624-3.441,10.345-5.486,16.54-5.486c0.292,0,0.58,0.013,0.87,0.022   c2.141,0.066,4.222,0.37,6.216,0.897l-6.354,2.354c-0.777,0.288-1.174,1.151-0.886,1.928c0.288,0.777,1.151,1.173,1.928,0.886   l9.449-3.5c0.777-0.287,1.173-1.151,0.886-1.928l-3.5-9.449c-0.288-0.777-1.151-1.173-1.928-0.886   c-0.365,0.135-0.646,0.398-0.812,0.719c-0.186,0.362-0.226,0.798-0.074,1.209l2.057,5.552l0,0   c-1.128-0.296-2.282-0.525-3.456-0.693c-1.437-0.205-2.903-0.317-4.396-0.317c-6.076,0-11.737,1.773-16.525,4.806   c-0.888-4.421-4.798-7.761-9.476-7.761c-5.33,0-9.667,4.336-9.667,9.667c0,3.176,1.546,5.99,3.918,7.753   c-5.706,2.225-9.751,7.646-9.751,13.978c0,0.829,0.671,1.5,1.5,1.5h28C39.053,50.303,39.059,50.304,39.066,50.304z M18.38,27.074   c0-3.676,2.991-6.667,6.667-6.667s6.667,2.991,6.667,6.667c0,3.676-2.991,6.667-6.667,6.667S18.38,30.749,18.38,27.074z    M12.642,47.304C13.41,41.357,18.68,36.74,25.046,36.74s11.636,4.617,12.404,10.564H12.642z"
       id="path9" /></g></svg>