<?xml version="1.0" encoding="UTF-8" standalone="no"?>
<svg
   xmlns:dc="http://purl.org/dc/elements/1.1/"
   xmlns:cc="http://creativecommons.org/ns#"
   xmlns:rdf="http://www.w3.org/1999/02/22-rdf-syntax-ns#"
   xmlns:svg="http://www.w3.org/2000/svg"
   xmlns="http://www.w3.org/2000/svg"
   xmlns:sodipodi="http://sodipodi.sourceforge.net/DTD/sodipodi-0.dtd"
   xmlns:inkscape="http://www.inkscape.org/namespaces/inkscape"
   version="1.1"
   id="Layer_1"
   x="0px"
   y="0px"
   width="80px"
   height="80px"
   viewBox="4.0 -8.0 80.0 108.0"
   enable-background="new 0 0 80 80"
   xml:space="preserve"
   inkscape:version="0.48.4 r9939"
   sodipodi:docname="play.svg"><metadata
     id="metadata19"><rdf:RDF><cc:Work
         rdf:about=""><dc:format>image/svg+xml</dc:format><dc:type
           rdf:resource="http://purl.org/dc/dcmitype/StillImage" /></cc:Work></rdf:RDF></metadata><defs
     id="defs17" /><sodipodi:namedview
     pagecolor="#ffffff"
     bordercolor="#666666"
     borderopacity="1"
     objecttolerance="10"
     gridtolerance="10"
     guidetolerance="10"
     inkscape:pageopacity="0"
     inkscape:pageshadow="2"
     inkscape:window-width="640"
     inkscape:window-height="480"
     id="namedview15"
     showgrid="false"
     inkscape:zoom="2.95"
     inkscape:cx="40"
     inkscape:cy="40"
     inkscape:window-x="65"
     inkscape:window-y="24"
     inkscape:window-maximized="0"
     inkscape:current-layer="Layer_1" /><g
     id="g3"
     transform="matrix(1.2691924,0,0,1.1974078,-8.0676969,-7.8963111)"><path
       d="M 33,50.6 V 30.3 L 52.1,41.1 33,50.6 z M 35,33.7 V 47.4 L 47.9,41 35,33.7 z"
       id="path5"
       inkscape:connector-curvature="0"
       style="fill:#000000" /></g><g
     id="g7"
     transform="matrix(1.2691924,0,0,1.1974078,-8.0676969,-7.8963111)"><path
       d="M 40,65.5 C 25.9,65.5 14.5,54.1 14.5,40 14.5,25.9 25.9,14.5 40,14.5 54.1,14.5 65.5,25.9 65.5,40 65.5,54.1 54.1,65.5 40,65.5 z m 0,-49 C 27,16.5 16.5,27 16.5,40 16.5,53 27,63.5 40,63.5 53,63.5 63.5,53 63.5,40 63.5,27 53,16.5 40,16.5 z"
       id="path9"
       inkscape:connector-curvature="0"
       style="fill:#000000" /></g></svg>