<?xml version="1.0" encoding="UTF-8" standalone="no"?>
<svg
   xmlns:dc="http://purl.org/dc/elements/1.1/"
   xmlns:cc="http://creativecommons.org/ns#"
   xmlns:rdf="http://www.w3.org/1999/02/22-rdf-syntax-ns#"
   xmlns:svg="http://www.w3.org/2000/svg"
   xmlns="http://www.w3.org/2000/svg"
   xmlns:sodipodi="http://sodipodi.sourceforge.net/DTD/sodipodi-0.dtd"
   xmlns:inkscape="http://www.inkscape.org/namespaces/inkscape"
   version="1.1"
   id="Icon"
   x="0px"
   y="0px"
   width="100px"
   height="100px"
   viewBox="5.0 -10.0 100.0 135.0"
   enable-background="new 0 0 100 100"
   xml:space="preserve"
   inkscape:version="0.48.4 r9939"
   sodipodi:docname="record.svg"><metadata
     id="metadata13"><rdf:RDF><cc:Work
         rdf:about=""><dc:format>image/svg+xml</dc:format><dc:type
           rdf:resource="http://purl.org/dc/dcmitype/StillImage" /></cc:Work></rdf:RDF></metadata><defs
     id="defs11" /><sodipodi:namedview
     pagecolor="#ffffff"
     bordercolor="#666666"
     borderopacity="1"
     objecttolerance="10"
     gridtolerance="10"
     guidetolerance="10"
     inkscape:pageopacity="0"
     inkscape:pageshadow="2"
     inkscape:window-width="1855"
     inkscape:window-height="1056"
     id="namedview9"
     showgrid="false"
     inkscape:zoom="2.36"
     inkscape:cx="50"
     inkscape:cy="50"
     inkscape:window-x="65"
     inkscape:window-y="24"
     inkscape:window-maximized="1"
     inkscape:current-layer="Icon" /><path
     clip-rule="evenodd"
     d="m 74.88,67.71 c -0.002,0 -0.003,0 -0.005,0 l 0,0 H 36.917 c -7.862,0 -14.235,-6.372 -14.235,-14.233 0,-7.861 6.373,-14.233 14.235,-14.233 7.861,0 14.234,6.372 14.234,14.233 0,4.125 -1.757,7.837 -4.561,10.437 h 18.616 c -2.805,-2.6 -4.561,-6.312 -4.561,-10.437 0,-7.861 6.373,-14.233 14.234,-14.233 7.861,0 14.234,6.372 14.234,14.233 0,7.861 -6.371,14.233 -14.233,14.233 z M 47.356,53.477 c 0,-5.765 -4.674,-10.438 -10.438,-10.438 -5.765,0 -10.438,4.673 -10.438,10.438 0,5.764 4.673,10.437 10.438,10.437 5.764,0 10.438,-4.673 10.438,-10.437 z M 74.88,43.039 c -5.766,0 -10.438,4.673 -10.438,10.438 0,5.764 4.673,10.437 10.438,10.437 5.765,0 10.438,-4.673 10.438,-10.437 C 85.319,47.712 80.645,43.039 74.88,43.039 z M 55.9,12.196 c 23.585,0 42.704,19.119 42.704,42.704 0,23.585 -19.119,42.704 -42.704,42.704 -23.585,0 -42.704,-19.119 -42.704,-42.704 0,-23.585 19.119,-42.704 42.704,-42.704 z m 0,-3.796 c 25.682,0 46.5,20.819 46.5,46.5 0,25.682 -20.818,46.5 -46.5,46.5 C 30.219,101.4 9.4,80.582 9.4,54.9 9.4,29.219 30.219,8.4 55.9,8.4 z"
     id="path3"
     inkscape:connector-curvature="0"
     style="fill-rule:evenodd" /></svg>